<svg xmlns="http://www.w3.org/2000/svg" width="294" height="60" viewBox="0 0 294 60">
  <g fill="none">
    <path fill="#FFF16F" d="M294,60 L189,60 L189,12 C189,5.37347131 194.400689,0 201.063951,0 L294,0 L294,60 Z"/>
    <g fill="#000" transform="translate(200.339 16.271)">
      <rect width="1.478" height="8.417" x="1.233" y=".667"/>
      <path d="M4.81932203 2.73587571L6.29715254 2.73587571 6.29715254 3.73163842C6.40108475 3.57768362 6.51640678 3.43361582 6.64169492 3.30084746 6.76698305 3.1680791 6.91220339 3.0480226 7.07735593 2.9420904 7.24108475 2.83757062 7.42332203 2.75564972 7.62122034 2.69491525 7.81769492 2.63418079 8.04264407 2.60310734 8.29037288 2.60310734 9.01647458 2.60310734 9.576 2.82344633 9.97037288 3.26412429 10.3661695 3.70621469 10.5626441 4.2980226 10.5626441 5.04378531L10.5626441 9.08333333 9.08481356 9.08333333 9.08481356 5.48446328C9.08481356 4.99011299 8.96664407 4.60734463 8.73030508 4.34039548 8.4939661 4.07062147 8.15938983 3.93785311 7.72657627 3.93785311 7.30230508 3.93785311 6.95776271 4.07485876 6.69294915 4.35169492 6.42955932 4.62711864 6.29715254 5.01271186 6.29715254 5.50847458L6.29715254 9.08333333 4.81932203 9.08333333 4.81932203 2.73587571 4.81932203 2.73587571zM14.4892881 9.19067797C14.2230508 9.19067797 13.975322 9.15960452 13.7475254 9.0960452 13.5183051 9.03107345 13.3218305 8.92655367 13.1552542 8.78248588 12.9872542 8.63700565 12.8591186 8.44915254 12.7694237 8.21186441 12.6797288 7.9759887 12.6355932 7.68079096 12.6355932 7.32768362L12.6355932 3.98446328 11.8240678 3.98446328 11.8240678 2.73587571 12.6355932 2.73587571 12.6355932.991525424 14.1134237.991525424 14.1134237 2.73587571 15.8347119 2.73587571 15.8347119 3.98446328 14.1134237 3.98446328 14.1134237 7.10028249C14.1134237 7.3799435 14.1817627 7.5819209 14.3198644 7.70621469 14.4579661 7.83050847 14.6501695 7.89265537 14.9021695 7.89265537 15.2168136 7.89265537 15.5200678 7.82062147 15.8105085 7.67655367L15.8105085 8.86723164C15.6254237 8.97175141 15.4261017 9.05084746 15.2168136 9.1059322 15.0061017 9.16242938 14.7640678 9.19067797 14.4892881 9.19067797M20.2354576 9.22740113C19.7741695 9.22740113 19.3442034 9.14548023 18.9441356 8.98587571 18.5440678 8.82627119 18.196678 8.60169492 17.9019661 8.31355932 17.6072542 8.0240113 17.3751864 7.6779661 17.2057627 7.27259887 17.0349153 6.86864407 16.9509153 6.42231638 16.9509153 5.93220339L16.9509153 5.90819209C16.9509153 5.4519774 17.0277966 5.02259887 17.1815593 4.62146893 17.3338983 4.22175141 17.5503051 3.8700565 17.8293559 3.57062147 18.1069831 3.26977401 18.4372881 3.03248588 18.816 2.86016949 19.1961356 2.68785311 19.6175593 2.60310734 20.0774237 2.60310734 20.5871186 2.60310734 21.0327458 2.69491525 21.4171525 2.87853107 21.8001356 3.06355932 22.1190508 3.31214689 22.3738983 3.62429379 22.6287458 3.93644068 22.8209492 4.29943503 22.9505085 4.71327684 23.0786441 5.12570621 23.1427119 5.55932203 23.1427119 6.01694915 23.1427119 6.08050847 23.1427119 6.14689266 23.1384407 6.21468927 23.1341695 6.28389831 23.1270508 6.35310734 23.1199322 6.42655367L18.4173559 6.42655367C18.4985085 6.94632768 18.7049492 7.34463277 19.0423729 7.62146893 19.3769492 7.89830508 19.7827119 8.03672316 20.259661 8.03672316 20.6227119 8.03672316 20.9387797 7.97175141 21.2035932 7.84463277 21.4712542 7.71610169 21.7332203 7.52824859 21.992339 7.27966102L22.8522712 8.03672316C22.5461695 8.39689266 22.1802712 8.68502825 21.756 8.90254237 21.3317288 9.11864407 20.8248814 9.22740113 20.2354576 9.22740113M21.6890847 5.46327684C21.6648814 5.23163842 21.6122034 5.01271186 21.5324746 4.8079096 21.451322 4.60451977 21.3416949 4.4279661 21.2035932 4.27966102 21.0669153 4.13135593 20.9031864 4.01412429 20.7124068 3.92514124 20.5244746 3.83757062 20.3066441 3.79237288 20.0646102 3.79237288 19.6132881 3.79237288 19.2388475 3.94774011 18.9441356 4.25564972 18.6494237 4.56355932 18.4686102 4.96610169 18.4045424 5.46327684 18.4045424 5.46327684 21.6890847 5.46327684 21.6890847 5.46327684z"/>
      <rect width="1.479" height="8.777" x="24.706" y=".306"/>
      <rect width="1.479" height="8.777" x="28.173" y=".306"/>
      <path d="M31.5768814.378531073L33.164339.378531073 33.164339 1.76129944 31.5768814 1.76129944 31.5768814.378531073zM31.6381017 2.73587571L33.1159322 2.73587571 33.1159322 9.08333333 31.6381017 9.08333333 31.6381017 2.73587571zM37.8669153 11.029661C36.8005424 11.029661 35.8466441 10.7810734 35.0066441 10.2810734L35.5519322 9.19067797C35.8907797 9.39830508 36.2467119 9.56355932 36.6183051 9.68361582 36.9898983 9.80367232 37.3942373 9.86440678 37.831322 9.86440678 38.4862373 9.86440678 38.9859661 9.69915254 39.3333559 9.36864407 39.6807458 9.03813559 39.8558644 8.55225989 39.8558644 7.90819209L39.8558644 7.41101695C39.5882034 7.75564972 39.2764068 8.03672316 38.9204746 8.25423729 38.5659661 8.46892655 38.1260339 8.57768362 37.600678 8.57768362 37.2205424 8.57768362 36.8574915 8.50988701 36.5101017 8.37429379 36.1627119 8.23728814 35.8537627 8.04237288 35.5832542 7.79096045 35.311322 7.53813559 35.096339 7.22740113 34.9340339 6.85734463 34.7717288 6.49011299 34.692 6.07344633 34.692 5.60875706L34.692 5.58474576C34.692 5.1200565 34.7717288 4.70056497 34.9340339 4.32768362 35.096339 3.95480226 35.311322 3.64265537 35.5832542 3.38983051 35.8537627 3.13841808 36.1641356 2.94350282 36.5157966 2.80649718 36.8674576 2.67090395 37.2290847 2.60310734 37.600678 2.60310734 38.1416949 2.60310734 38.5887458 2.70903955 38.9389831 2.92090395 39.2906441 3.13418079 39.5924746 3.38700565 39.8430508 3.68361582L39.8430508 2.73446328 41.3094915 2.73446328 41.3094915 7.78531073C41.3094915 8.84322034 41.0389831 9.63983051 40.4979661 10.1765537 40.2061017 10.4646893 39.8402034 10.6793785 39.4002712 10.8206215 38.960339 10.960452 38.4477966 11.029661 37.8669153 11.029661M37.9879322 7.35169492C38.2385085 7.35169492 38.4791186 7.30932203 38.7097627 7.22457627 38.9389831 7.14124294 39.1397288 7.02118644 39.3091525 6.86440678 39.4785763 6.70903955 39.6152542 6.5240113 39.7149153 6.31214689 39.816 6.09887006 39.8658305 5.86440678 39.8658305 5.60875706L39.8658305 5.58474576C39.8658305 5.32062147 39.816 5.0819209 39.7149153 4.86864407 39.6152542 4.65677966 39.4785763 4.47175141 39.3091525 4.31638418 39.1397288 4.15960452 38.9389831 4.03813559 38.7097627 3.95480226 38.4791186 3.8700565 38.2385085 3.82909605 37.9879322 3.82909605 37.7288136 3.82909605 37.4910508 3.8700565 37.2732203 3.95480226 37.0553898 4.03813559 36.8631864 4.15677966 36.6980339 4.31073446 36.5328814 4.46186441 36.403322 4.6440678 36.3093559 4.8559322 36.2168136 5.06920904 36.1712542 5.3079096 36.1712542 5.5720339L36.1712542 5.5960452C36.1712542 5.86016949 36.219661 6.09887006 36.3150508 6.31214689 36.4132881 6.5240113 36.5414237 6.70903955 36.7037288 6.86440678 36.8646102 7.02118644 37.0568136 7.14124294 37.2789153 7.22457627 37.5010169 7.30932203 37.7373559 7.35169492 37.9879322 7.35169492M46.0718644 9.22740113C45.6105763 9.22740113 45.1806102 9.14548023 44.7805424 8.98587571 44.3804746 8.82627119 44.0330847 8.60169492 43.7383729 8.31355932 43.443661 8.0240113 43.2115932 7.6779661 43.0421695 7.27259887 42.871322 6.86864407 42.787322 6.42231638 42.787322 5.93220339L42.787322 5.90819209C42.787322 5.4519774 42.8642034 5.02259887 43.0179661 4.62146893 43.1703051 4.22175141 43.3867119 3.8700565 43.6657627 3.57062147 43.9433898 3.26977401 44.2736949 3.03248588 44.6524068 2.86016949 45.0325424 2.68785311 45.4539661 2.60310734 45.9138305 2.60310734 46.4235254 2.60310734 46.8691525 2.69491525 47.2535593 2.87853107 47.6365424 3.06355932 47.9554576 3.31214689 48.2103051 3.62429379 48.4651525 3.93644068 48.6573559 4.29943503 48.7869153 4.71327684 48.9150508 5.12570621 48.9791186 5.55932203 48.9791186 6.01694915 48.9791186 6.08050847 48.9791186 6.14689266 48.9748475 6.21468927 48.9705763 6.28389831 48.9634576 6.35310734 48.956339 6.42655367L44.2537627 6.42655367C44.3349153 6.94632768 44.5413559 7.34463277 44.8787797 7.62146893 45.2133559 7.89830508 45.6191186 8.03672316 46.0960678 8.03672316 46.4591186 8.03672316 46.7751864 7.97175141 47.04 7.84463277 47.307661 7.71610169 47.5696271 7.52824859 47.8287458 7.27966102L48.688678 8.03672316C48.3825763 8.39689266 48.016678 8.68502825 47.5924068 8.90254237 47.1681356 9.11864407 46.6612881 9.22740113 46.0718644 9.22740113M47.5254915 5.46327684C47.5012881 5.23163842 47.4486102 5.01271186 47.3688814 4.8079096 47.2877288 4.60451977 47.1781017 4.4279661 47.04 4.27966102 46.903322 4.13135593 46.7395932 4.01412429 46.5488136 3.92514124 46.3608814 3.83757062 46.1430508 3.79237288 45.9010169 3.79237288 45.4496949 3.79237288 45.0752542 3.94774011 44.7805424 4.25564972 44.4858305 4.56355932 44.3050169 4.96610169 44.2409492 5.46327684 44.2409492 5.46327684 47.5254915 5.46327684 47.5254915 5.46327684zM50.4583729 2.73587571L51.9376271 2.73587571 51.9376271 3.73163842C52.0415593 3.57768362 52.1554576 3.43361582 52.2807458 3.30084746 52.4060339 3.1680791 52.5512542 3.0480226 52.7164068 2.9420904 52.8815593 2.83757062 53.0623729 2.75564972 53.2602712 2.69491525 53.4567458 2.63418079 53.6816949 2.60310734 53.9308475 2.60310734 54.6555254 2.60310734 55.2164746 2.82344633 55.6108475 3.26412429 56.0052203 3.70621469 56.2031186 4.2980226 56.2031186 5.04378531L56.2031186 9.08333333 54.7238644 9.08333333 54.7238644 5.48446328C54.7238644 4.99011299 54.6056949 4.60734463 54.3693559 4.34039548 54.1330169 4.07062147 53.7998644 3.93785311 53.3670508 3.93785311 52.9427797 3.93785311 52.5982373 4.07485876 52.3334237 4.35169492 52.0700339 4.62711864 51.9376271 5.01271186 51.9376271 5.50847458L51.9376271 9.08333333 50.4583729 9.08333333 50.4583729 2.73587571 50.4583729 2.73587571zM60.9412881 9.22740113C60.464339 9.22740113 60.0244068 9.13983051 59.6200678 8.96751412 59.2157288 8.79519774 58.8654915 8.56073446 58.5679322 8.26412429 58.2703729 7.96751412 58.0383051 7.6200565 57.8717288 7.21892655 57.7051525 6.81779661 57.6211525 6.3940678 57.6211525 5.94491525L57.6211525 5.92090395C57.6211525 5.47175141 57.7051525 5.04519774 57.8717288 4.63983051 58.0383051 4.23587571 58.2703729 3.88276836 58.5679322 3.5819209 58.8654915 3.28107345 59.2185763 3.04237288 59.6257627 2.86723164 60.0343729 2.69067797 60.4771525 2.60310734 60.9541017 2.60310734 61.5606102 2.60310734 62.0631864 2.70338983 62.4618305 2.90254237 62.863322 3.10310734 63.2121356 3.36864407 63.5111186 3.69632768L62.6013559 4.66949153C62.3764068 4.43785311 62.1357966 4.24858757 61.8809492 4.09887006 61.6261017 3.9519774 61.3128814 3.87711864 60.9412881 3.87711864 60.6750508 3.87711864 60.4287458 3.93079096 60.2023729 4.03813559 59.976 4.14689266 59.7823729 4.29096045 59.6200678 4.47175141 59.4591864 4.65254237 59.3310508 4.86723164 59.2399322 5.11581921 59.1459661 5.36440678 59.0989831 5.62429379 59.0989831 5.89689266L59.0989831 5.92090395C59.0989831 6.20056497 59.1459661 6.46610169 59.2399322 6.71468927 59.3310508 6.96186441 59.4634576 7.17937853 59.6328814 7.36440678 59.8023051 7.5480226 60.0044746 7.69350282 60.2393898 7.80225989 60.4728814 7.90960452 60.732 7.96327684 61.015322 7.96327684 61.3612881 7.96327684 61.6673898 7.89124294 61.9293559 7.74152542 62.191322 7.59463277 62.4404746 7.4039548 62.6753898 7.17090395L63.5595254 8.03672316C63.2434576 8.38841808 62.884678 8.67514124 62.480339 8.89689266 62.0774237 9.11723164 61.5634576 9.22740113 60.9412881 9.22740113M67.8264407 9.22740113C67.3651525 9.22740113 66.9351864 9.14548023 66.5351186 8.98587571 66.1350508 8.82627119 65.787661 8.60169492 65.4929492 8.31355932 65.1982373 8.0240113 64.9661695 7.6779661 64.7967458 7.27259887 64.6258983 6.86864407 64.5418983 6.42231638 64.5418983 5.93220339L64.5418983 5.90819209C64.5418983 5.4519774 64.6187797 5.02259887 64.7725424 4.62146893 64.9248814 4.22175141 65.1412881 3.8700565 65.420339 3.57062147 65.6979661 3.26977401 66.0282712 3.03248588 66.4069831 2.86016949 66.7871186 2.68785311 67.2085424 2.60310734 67.6684068 2.60310734 68.1781017 2.60310734 68.6237288 2.69491525 69.0081356 2.87853107 69.3911186 3.06355932 69.7100339 3.31214689 69.9648814 3.62429379 70.2197288 3.93644068 70.4119322 4.29943503 70.5414915 4.71327684 70.6696271 5.12570621 70.7336949 5.55932203 70.7336949 6.01694915 70.7336949 6.08050847 70.7336949 6.14689266 70.7294237 6.21468927 70.7251525 6.28389831 70.7180339 6.35310734 70.7109153 6.42655367L66.008339 6.42655367C66.0894915 6.94632768 66.2959322 7.34463277 66.6333559 7.62146893 66.9679322 7.89830508 67.3736949 8.03672316 67.8506441 8.03672316 68.2136949 8.03672316 68.5297627 7.97175141 68.7945763 7.84463277 69.0622373 7.71610169 69.3242034 7.52824859 69.583322 7.27966102L70.4432542 8.03672316C70.1371525 8.39689266 69.7712542 8.68502825 69.3469831 8.90254237 68.9227119 9.11864407 68.4158644 9.22740113 67.8264407 9.22740113M69.2800678 5.46327684C69.2558644 5.23163842 69.2031864 5.01271186 69.1234576 4.8079096 69.0423051 4.60451977 68.932678 4.4279661 68.7945763 4.27966102 68.6578983 4.13135593 68.4941695 4.01412429 68.3033898 3.92514124 68.1154576 3.83757062 67.8976271 3.79237288 67.6555932 3.79237288 67.2042712 3.79237288 66.8298305 3.94774011 66.5351186 4.25564972 66.2404068 4.56355932 66.0595932 4.96610169 65.9955254 5.46327684 65.9955254 5.46327684 69.2800678 5.46327684 69.2800678 5.46327684zM4.8919322 23.5112994L4.8919322 22.7288136C4.67267797 22.9858757 4.39505085 23.2019774 4.05620339 23.3785311 3.7159322 23.5550847 3.30305085 23.6440678 2.82040678 23.6440678 2.51288136 23.6440678 2.22101695 23.6002825 1.94623729 23.5169492 1.67145763 23.4322034 1.43227119 23.3079096 1.22440678 23.1440678 1.01938983 22.980226.854237288 22.7754237.728949153 22.5310734.603661017 22.2867232.541016949 22.0042373.541016949 21.6836158L.541016949 21.6596045C.541016949 21.3064972.605084746 21.0014124.734644068 20.740113.86420339 20.4788136 1.04359322 20.2627119 1.27423729 20.0903955 1.50488136 19.9180791 1.77823729 19.789548 2.09857627 19.7062147 2.4160678 19.6214689 2.7620339 19.5805085 3.13362712 19.5805085 3.52230508 19.5805085 3.85118644 19.6031073 4.12311864 19.6511299 4.39220339 19.700565 4.65416949 19.7641243 4.90332203 19.8432203L4.90332203 19.7231638C4.90332203 19.2838983 4.7680678 18.9463277 4.49755932 18.7132768 4.22705085 18.4816384 3.83694915 18.3644068 3.32867797 18.3644068 2.96420339 18.3644068 2.64244068 18.4025424 2.35769492 18.4731638 2.07579661 18.5451977 1.78962712 18.6426554 1.49918644 18.7627119L1.09911864 17.5960452C1.45505085 17.4350282 1.81667797 17.3064972 2.18827119 17.2118644 2.56128814 17.1158192 3.00833898 17.0663842 3.53369492 17.0663842 4.48616949 17.0663842 5.19376271 17.3008475 5.65505085 17.769774 6.11491525 18.2387006 6.34555932 18.8983051 6.34555932 19.7485876L6.34555932 23.5112994C6.34555932 23.5112994 4.8919322 23.5112994 4.8919322 23.5112994zM4.92752542 20.8545198C4.74244068 20.7810734 4.52176271 20.7217514 4.26691525 20.6737288 4.0120678 20.6257062 3.74440678 20.6016949 3.46250847 20.6016949 2.99979661 20.6016949 2.64244068 20.690678 2.38332203 20.8658192 2.12420339 21.0423729 1.99464407 21.2838983 1.99464407 21.5875706L1.99464407 21.6115819C1.99464407 21.9166667 2.11423729 22.1483051 2.352 22.3079096 2.58976271 22.470339 2.88305085 22.549435 3.23186441 22.549435 3.47389831 22.549435 3.69884746 22.5183616 3.90386441 22.4533898 4.11030508 22.3898305 4.28969492 22.2980226 4.44345763 22.1822034 4.59722034 22.0663842 4.71681356 21.9265537 4.80081356 21.7627119 4.88623729 21.5974576 4.92752542 21.4138418 4.92752542 21.2146893L4.92752542 20.8545198 4.92752542 20.8545198zM10.2494237 23.6186441C9.98318644 23.6186441 9.73545763 23.5875706 9.50766102 23.5240113 9.27844068 23.4590395 9.0819661 23.3545198 8.91538983 23.210452 8.7459661 23.0649718 8.61783051 22.8771186 8.52955932 22.6398305 8.43986441 22.4039548 8.39430508 22.1087571 8.39430508 21.7556497L8.39430508 18.4124294 7.58277966 18.4124294 7.58277966 17.1638418 8.39430508 17.1638418 8.39430508 15.4194915 9.87355932 15.4194915 9.87355932 17.1638418 11.5934237 17.1638418 11.5934237 18.4124294 9.87355932 18.4124294 9.87355932 21.5282486C9.87355932 21.8079096 9.94189831 22.009887 10.08 22.1341808 10.216678 22.2584746 10.4103051 22.3206215 10.6608814 22.3206215 10.9769492 22.3206215 11.2802034 22.2485876 11.5706441 22.1045198L11.5706441 23.2951977C11.3841356 23.3997175 11.1862373 23.4788136 10.9769492 23.5338983 10.7662373 23.5903955 10.5227797 23.6186441 10.2494237 23.6186441M18.8530169 23.6186441C18.5867797 23.6186441 18.3390508 23.5875706 18.1112542 23.5240113 17.8820339 23.4590395 17.6855593 23.3545198 17.5189831 23.210452 17.3509831 23.0649718 17.2228475 22.8771186 17.1331525 22.6398305 17.0434576 22.4039548 16.999322 22.1087571 16.999322 21.7556497L16.999322 18.4124294 16.1877966 18.4124294 16.1877966 17.1638418 16.999322 17.1638418 16.999322 15.4194915 18.4771525 15.4194915 18.4771525 17.1638418 20.1984407 17.1638418 20.1984407 18.4124294 18.4771525 18.4124294 18.4771525 21.5282486C18.4771525 21.8079096 18.5454915 22.009887 18.6835932 22.1341808 18.8216949 22.2584746 19.0138983 22.3206215 19.2658983 22.3206215 19.5805424 22.3206215 19.8837966 22.2485876 20.1742373 22.1045198L20.1742373 23.2951977C19.9891525 23.3997175 19.7898305 23.4788136 19.5805424 23.5338983 19.3698305 23.5903955 19.1277966 23.6186441 18.8530169 23.6186441M21.6634576 14.7330508L23.1427119 14.7330508 23.1427119 18.1581921C23.2466441 18.0042373 23.3605424 17.8601695 23.4858305 17.7288136 23.6111186 17.5946328 23.756339 17.4745763 23.9214915 17.3700565 24.0866441 17.2641243 24.2674576 17.1822034 24.4653559 17.1214689 24.6618305 17.0607345 24.8867797 17.029661 25.1359322 17.029661 25.8606102 17.029661 26.4215593 17.2514124 26.8159322 17.690678 27.2103051 18.1327684 27.4082034 18.7259887 27.4082034 19.470339L27.4082034 23.509887 25.9289492 23.509887 25.9289492 19.9124294C25.9289492 19.4166667 25.8107797 19.0338983 25.5744407 18.7669492 25.3381017 18.4985876 25.0049492 18.3644068 24.5721356 18.3644068 24.1478644 18.3644068 23.803322 18.5014124 23.5385085 18.7782486 23.2751186 19.0536723 23.1427119 19.440678 23.1427119 19.9350282L23.1427119 23.509887 21.6634576 23.509887 21.6634576 14.7330508 21.6634576 14.7330508zM32.1122034 23.6553672C31.6494915 23.6553672 31.2209492 23.5734463 30.8194576 23.4138418 30.4208136 23.2542373 30.0734237 23.029661 29.7787119 22.7415254 29.4825763 22.4519774 29.2505085 22.1059322 29.0810847 21.700565 28.9102373 21.2966102 28.8262373 20.8502825 28.8262373 20.3601695L28.8262373 20.3361582C28.8262373 19.8799435 28.9045424 19.450565 29.0568814 19.049435 29.2092203 18.6497175 29.4270508 18.2980226 29.704678 17.9985876 29.9837288 17.6977401 30.3140339 17.460452 30.6927458 17.2881356 31.0728814 17.1158192 31.4928814 17.0310734 31.9527458 17.0310734 32.4624407 17.0310734 32.9080678 17.1228814 33.2924746 17.3064972 33.6754576 17.4915254 33.9957966 17.740113 34.2492203 18.0522599 34.5040678 18.3644068 34.6962712 18.7274011 34.8258305 19.1412429 34.9553898 19.5536723 35.0194576 19.9872881 35.0194576 20.4449153 35.0194576 20.5084746 35.0180339 20.5748588 35.0137627 20.6426554 35.0094915 20.7118644 35.0037966 20.7810734 34.9952542 20.8545198L30.292678 20.8545198C30.3738305 21.3742938 30.5816949 21.7725989 30.9176949 22.049435 31.2522712 22.3262712 31.6580339 22.4646893 32.1349831 22.4646893 32.4994576 22.4646893 32.8141017 22.3997175 33.080339 22.2725989 33.348 22.1440678 33.6085424 21.9562147 33.867661 21.7076271L34.7275932 22.4646893C34.4214915 22.8248588 34.0570169 23.1129944 33.631322 23.3305085 33.2070508 23.5466102 32.7016271 23.6553672 32.1122034 23.6553672M33.5658305 19.8912429C33.5402034 19.6596045 33.4875254 19.440678 33.4077966 19.2358757 33.3266441 19.0324859 33.2184407 18.8559322 33.080339 18.7076271 32.943661 18.559322 32.7785085 18.4420904 32.5891525 18.3531073 32.3997966 18.2655367 32.1833898 18.220339 31.9413559 18.220339 31.4886102 18.220339 31.1141695 18.3757062 30.8194576 18.6836158 30.5247458 18.9915254 30.3453559 19.3940678 30.2798644 19.8912429 30.2798644 19.8912429 33.5658305 19.8912429 33.5658305 19.8912429zM43.1019661 23.6553672C42.6250169 23.6553672 42.1850847 23.5677966 41.7807458 23.3954802 41.3764068 23.2231638 41.0261695 22.9887006 40.7286102 22.6920904 40.4310508 22.3954802 40.1989831 22.0480226 40.0324068 21.6468927 39.8658305 21.2457627 39.7818305 20.8220339 39.7818305 20.3728814L39.7818305 20.3488701C39.7818305 19.8997175 39.8658305 19.4731638 40.0324068 19.0677966 40.1989831 18.6638418 40.4310508 18.3107345 40.7286102 18.009887 41.0261695 17.7090395 41.3792542 17.470339 41.7864407 17.2951977 42.1950508 17.1186441 42.6378305 17.0310734 43.1147797 17.0310734 43.7212881 17.0310734 44.2238644 17.1313559 44.6225085 17.3305085 45.024 17.5310734 45.3728136 17.7966102 45.6717966 18.1242938L44.7620339 19.0974576C44.5370847 18.8658192 44.2964746 18.6765537 44.0416271 18.5268362 43.7867797 18.3799435 43.4735593 18.3050847 43.1019661 18.3050847 42.8357288 18.3050847 42.5894237 18.3587571 42.3630508 18.4661017 42.136678 18.5748588 41.9430508 18.7189266 41.7807458 18.8997175 41.6198644 19.0805085 41.4917288 19.2951977 41.4006102 19.5437853 41.3066441 19.7923729 41.259661 20.0522599 41.259661 20.3248588L41.259661 20.3488701C41.259661 20.6285311 41.3066441 20.8940678 41.4006102 21.1426554 41.4917288 21.3898305 41.6241356 21.6073446 41.7935593 21.7923729 41.9629831 21.9759887 42.1651525 22.1214689 42.4000678 22.230226 42.6335593 22.3375706 42.892678 22.3912429 43.176 22.3912429 43.5219661 22.3912429 43.8280678 22.319209 44.0900339 22.1694915 44.352 22.0225989 44.6011525 21.8319209 44.8360678 21.5988701L45.7202034 22.4646893C45.4041356 22.8163842 45.0453559 23.1031073 44.6410169 23.3248588 44.2381017 23.5451977 43.7241356 23.6553672 43.1019661 23.6553672M50.095322 23.6567797C49.6112542 23.6567797 49.1599322 23.569209 48.7442034 23.3968927 48.3284746 23.2245763 47.9682712 22.990113 47.6650169 22.6935028 47.3617627 22.3968927 47.1254237 22.049435 46.956 21.6483051 46.7865763 21.2457627 46.7025763 20.8234463 46.7025763 20.3728814L46.7025763 20.3502825C46.7025763 19.8912429 46.7894237 19.4646893 46.9631186 19.0635593 47.1368136 18.6610169 47.3745763 18.3107345 47.6778305 18.009887 47.9810847 17.710452 48.3412881 17.4717514 48.7570169 17.2966102 49.1727458 17.1200565 49.6269153 17.0310734 50.1195254 17.0310734 50.6135593 17.0310734 51.0677288 17.1172316 51.4834576 17.289548 51.8991864 17.4618644 52.2593898 17.6991525 52.5626441 18 52.8658983 18.299435 53.1022373 18.6483051 53.271661 19.0451977 53.4410847 19.440678 53.5265085 19.8686441 53.5265085 20.3248588L53.5265085 20.3502825C53.5265085 20.7980226 53.4382373 21.2231638 53.2645424 21.6242938 53.0908475 22.0240113 52.8530847 22.3742938 52.5498305 22.6751412 52.2465763 22.9759887 51.8849492 23.2146893 51.4649492 23.3912429 51.0449492 23.5677966 50.5879322 23.6567797 50.095322 23.6567797M50.1195254 22.3926554C50.4170847 22.3926554 50.683322 22.3389831 50.919661 22.2316384 51.1574237 22.1228814 51.3610169 21.9759887 51.5290169 21.7923729 51.6970169 21.6073446 51.8265763 21.3940678 51.9148475 21.1483051 52.0031186 20.9039548 52.0472542 20.6468927 52.0472542 20.3728814L52.0472542 20.3502825C52.0472542 20.0677966 51.9988475 19.8036723 51.9020339 19.5550847 51.8066441 19.3064972 51.6713898 19.0903955 51.4991186 18.9067797 51.3268475 18.7217514 51.1218305 18.5762712 50.8840678 18.4675141 50.6477288 18.3601695 50.3857627 18.3050847 50.095322 18.3050847 49.8063051 18.3050847 49.544339 18.3601695 49.308 18.4675141 49.0702373 18.5762712 48.8666441 18.7189266 48.6986441 18.8997175 48.5306441 19.0805085 48.4010847 19.2966102 48.3128136 19.5437853 48.2259661 19.7923729 48.1818305 20.0536723 48.1818305 20.3248588L48.1818305 20.3502825C48.1818305 20.6299435 48.2288136 20.8926554 48.3256271 21.1370056 48.4224407 21.3813559 48.5562712 21.5988701 48.7285424 21.7853107 48.9022373 21.9745763 49.1058305 22.1228814 49.3435932 22.2316384 49.5799322 22.3389831 49.8390508 22.3926554 50.1195254 22.3926554M55.0157288 17.1638418L56.4935593 17.1638418 56.4935593 18.5946328C56.6957288 18.1129944 56.983322 17.7274011 57.3549153 17.4392655 57.7250847 17.1511299 58.1934915 17.0183616 58.7601356 17.0437853L58.7601356 18.5819209 58.6747119 18.5819209C58.3529492 18.5819209 58.0582373 18.6341808 57.7905763 18.7387006 57.524339 18.8418079 57.2936949 18.9985876 57.1000678 19.2076271 56.9050169 19.4166667 56.7569492 19.6779661 56.6501695 19.9943503 56.5462373 20.3121469 56.4935593 20.6779661 56.4935593 21.0946328L56.4935593 23.5112994 55.0157288 23.5112994 55.0157288 17.1638418 55.0157288 17.1638418zM62.9544407 23.6553672C62.4931525 23.6553672 62.0631864 23.5734463 61.6631186 23.4138418 61.2630508 23.2542373 60.915661 23.029661 60.6209492 22.7415254 60.3262373 22.4519774 60.0941695 22.1059322 59.9247458 21.700565 59.7538983 21.2966102 59.6698983 20.8502825 59.6698983 20.3601695L59.6698983 20.3361582C59.6698983 19.8799435 59.7467797 19.450565 59.9005424 19.049435 60.0528814 18.6497175 60.2692881 18.2980226 60.548339 17.9985876 60.8259661 17.6977401 61.1562712 17.460452 61.5349831 17.2881356 61.9151186 17.1158192 62.3365424 17.0310734 62.7964068 17.0310734 63.3061017 17.0310734 63.7517288 17.1228814 64.1361356 17.3064972 64.5191186 17.4915254 64.8380339 17.740113 65.0928814 18.0522599 65.3477288 18.3644068 65.5399322 18.7274011 65.6694915 19.1412429 65.7976271 19.5536723 65.8616949 19.9872881 65.8616949 20.4449153 65.8616949 20.5084746 65.8616949 20.5748588 65.8574237 20.6426554 65.8531525 20.7118644 65.8460339 20.7810734 65.8389153 20.8545198L61.136339 20.8545198C61.2174915 21.3742938 61.4239322 21.7725989 61.7613559 22.049435 62.0959322 22.3262712 62.5016949 22.4646893 62.9786441 22.4646893 63.3416949 22.4646893 63.6577627 22.3997175 63.9225763 22.2725989 64.1902373 22.1440678 64.4522034 21.9562147 64.711322 21.7076271L65.5712542 22.4646893C65.2651525 22.8248588 64.8992542 23.1129944 64.4749831 23.3305085 64.0507119 23.5466102 63.5438644 23.6553672 62.9544407 23.6553672M64.4080678 19.8912429C64.3838644 19.6596045 64.3311864 19.440678 64.2514576 19.2358757 64.1703051 19.0324859 64.060678 18.8559322 63.9225763 18.7076271 63.7858983 18.559322 63.6221695 18.4420904 63.4313898 18.3531073 63.2434576 18.2655367 63.0256271 18.220339 62.7835932 18.220339 62.3322712 18.220339 61.9578305 18.3757062 61.6631186 18.6836158 61.3684068 18.9915254 61.1875932 19.3940678 61.1235254 19.8912429 61.1235254 19.8912429 64.4080678 19.8912429 64.4080678 19.8912429z"/>
    </g>
    <path fill="#000" d="M189,60 L0,60 L0,12 C0,5.37347131 5.40068904,0 12.0639505,0 L189,0 L189,60 Z"/>
    <path fill="#FFF" d="M25.8057915 36.3928063L25.8057915 30.9600416 35.8921752 30.9600416 35.8921752 26.6993602 25.8057915 26.6993602 25.8057915 22.4876356C25.8057915 21.9995075 26.2006884 21.6035334 26.6874885 21.6035334L36.5168302 21.6035334 36.5168302 17.2881356 23.7092482 17.2881356C21.848207 17.2881356 20.3389831 18.8014766 20.3389831 20.6675946L20.3389831 40.6779661 36.6101695 40.6779661 36.6101695 36.3928063 25.8057915 36.3928063zM47.7116499 36.4817401C45.6182981 36.5165219 43.7095276 35.1210765 43.66374 32.5931361 43.6179524 30.0638045 45.297785 28.6363599 47.3911367 28.6001868 48.3669849 28.5848829 49.3485565 28.8700935 50.1011902 29.3973854L52.2732394 25.6339959C50.74794 24.814537 49.0724001 24.3776777 47.242327 24.4082857 42.4331983 24.4889795 38.5526994 27.6123841 38.6457054 32.6780037 38.7372806 37.7728401 42.9068138 40.7557262 47.7145116 40.6764237 49.6075426 40.6444245 51.4318923 40.1073937 52.8813559 39.1821981L50.4388737 35.5718485C49.7921239 36.1575738 48.7103919 36.4636535 47.7116499 36.4817401M72.260434 23.3898305C67.3006276 23.3898305 64.0677966 26.7923293 64.0677966 32.0922352 64.0677966 37.3338042 67.4419764 40.6779661 72.4423682 40.6779661 75.705988 40.6779661 78.4853829 39.3216335 79.9282611 36.9298213L76.3399587 34.6838513C75.6584052 35.8841327 74.4044587 36.7300175 72.6285009 36.7300175 70.5698453 36.7300175 69.1255676 35.6230751 68.8890531 33.5666999L80.3229184 33.5666999C80.3705012 32.2001584 80.315921 30.7023589 80.1115948 29.7573014 79.3138833 26.0558261 76.4953026 23.3898305 72.260434 23.3898305M68.9660253 30.3158771C68.9898167 29.8418899 69.0975777 29.2862311 69.271115 28.9041245 69.4460517 28.5234763 69.6895637 28.1909561 69.9834574 27.9196896 70.5712448 27.3756981 71.3647579 27.0694295 72.2380421 27.0694295 73.1421152 27.0694295 73.9160353 27.3640307 74.4856293 27.9007301 74.7697266 28.1690797 75.0048416 28.4986831 75.1797783 28.8837066 75.354715 29.2658132 75.4694735 29.8287641 75.5170563 30.3158771L68.9660253 30.3158771zM91.4404635 36.4817401C89.3471117 36.5165219 87.4383412 35.1210765 87.3911227 32.5931361 87.346766 30.0638045 89.0251676 28.6363599 91.1185194 28.6001868 92.0943676 28.5848829 93.0773701 28.8700935 93.8300038 29.3973854L96.002053 25.6339959C94.4753227 24.814537 92.7997828 24.3776777 90.9711406 24.4082857 86.1620119 24.4889795 82.2815129 27.6123841 82.374519 32.6780037 82.4660942 37.7728401 86.6356274 40.7557262 91.4433252 40.6764237 93.3363562 40.6444245 95.1607058 40.1073937 96.6101695 39.1821981L94.1676873 35.5718485C93.5195066 36.1575738 92.4377746 36.4636535 91.4404635 36.4817401M103.478696 34.0874074L103.478696 28.637423 107.874343 28.637423 107.874343 24.714158 103.478696 24.714158 103.478696 21.3559322 98.6440678 21.3559322 98.6440678 34.8973897C98.6440678 39.451105 101.302749 40.9847829 105.971119 40.628502 106.835956 40.563091 108.011434 40.3237148 108.813559 40.0885137L107.760587 36.4561187C104.900646 37.0476006 103.478696 36.2974623 103.478696 34.0874074M116.407625 34.5366192L116.407625 24.4067797 111.864407 24.4067797 111.864407 34.9997057 111.864407 35.5661723C111.864407 39.6334028 114.20863 41.3243057 118.590178 40.4561956 118.947771 40.3853872 119.776675 40.1857077 120 40.0809114L119.010795 36.5376626C117.218718 36.9228599 116.407625 36.3068275 116.407625 34.5366192M130.085033 36.4817401C127.991884 36.5165219 126.083299 35.1210765 126.036085 32.5931361 125.990302 30.0638045 127.671402 28.6363599 129.76312 28.6001868 130.738873 28.5848829 131.721781 28.8700935 132.474341 29.3973854L134.644749 25.6339959C133.119598 24.814537 131.44422 24.3776777 129.614325 24.4082857 124.807093 24.4889795 120.926971 27.6123841 121.018537 32.6780037 121.111534 37.7728401 125.280663 40.7557262 130.087894 40.6764237 131.980742 40.6444245 133.804914 40.1073937 135.254237 39.1821981L132.811992 35.5718485C132.163874 36.1575738 131.082247 36.4636535 130.085033 36.4817401M61.8216699 36.5552497C60.308836 36.8077881 59.4592372 36.1871428 59.4592372 34.4935658L59.4592372 17.2881356 54.9152542 17.2881356 54.9152542 35.5294014C54.9152542 39.6270874 57.1886161 41.3263716 61.6421579 40.4560413 61.9998116 40.3875563 62.8288555 40.1849548 63.0508475 40.0793738L62.0628463 36.509593C61.9806271 36.5267143 61.8997782 36.5424088 61.8216699 36.5552497M114.407494 22.3728814C115.811907 22.3728814 116.949153 21.2345268 116.949153 19.8305085 116.949153 18.4264902 115.811907 17.2881356 114.407494 17.2881356 113.003081 17.2881356 111.864407 18.4264902 111.864407 19.8305085 111.864407 21.2345268 113.003081 22.3728814 114.407494 22.3728814"/>
    <rect width="5.085" height="23.39" x="138.305" y="17.288" fill="#FFF"/>
    <path fill="#FFF" d="M158.934068,39.6610169 C158.00884,39.6610169 156.562275,39.6116147 155.519603,39.4732885 C151.771426,38.9764434 148.730776,37.0003549 146.959092,33.9134224 C145.940768,32.1391772 145.423729,30.1405048 145.423729,27.9780994 C145.423729,21.5219359 150.813256,16.2711864 157.437375,16.2711864 C164.061495,16.2711864 169.451022,21.5219359 169.451022,27.9780994 C169.451022,29.8920822 168.971221,31.7848927 168.061747,33.4730369 L163.200717,30.884361 C163.623229,29.9810062 163.848091,28.9830815 163.848091,27.9766879 C163.848091,24.3181012 160.972149,21.341265 157.437375,21.341265 C153.902602,21.341265 151.02666,24.3181012 151.02666,27.9766879 C151.02666,29.1383456 151.324566,30.2858885 151.884573,31.2908706 C152.808369,32.942316 154.327978,34.1082082 156.055262,34.4935455 C156.663965,34.6262257 157.467452,34.6855084 158.661942,34.6855084 L167.984406,34.6855084 L170.847458,39.6610169 L158.934068,39.6610169 L158.934068,39.6610169 Z"/>
  </g>
</svg>
